<mxfile host="app.diagrams.net" modified="2022-11-01T07:39:40.728Z" agent="5.0 (Windows NT 10.0; Win64; x64) AppleWebKit/537.36 (KHTML, like Gecko) Chrome/107.0.0.0 Safari/537.36 Edg/107.0.1418.26" etag="_JInLechJ1A5-mmNCgNg" version="20.4.2" type="github">
  <diagram name="Page-1" id="55a83fd1-7818-8e21-69c5-c3457e3827bb">
    <mxGraphModel dx="1422" dy="1612" grid="1" gridSize="10" guides="1" tooltips="1" connect="1" arrows="1" fold="1" page="1" pageScale="1" pageWidth="1100" pageHeight="850" background="none" math="0" shadow="0">
      <root>
        <mxCell id="0" />
        <mxCell id="1" parent="0" />
        <mxCell id="QfL149suLyUnm_xPkatL-2" value="" style="ellipse;shape=cloud;whiteSpace=wrap;html=1;" vertex="1" parent="1">
          <mxGeometry x="20" y="-380" width="970" height="600" as="geometry" />
        </mxCell>
        <mxCell id="QfL149suLyUnm_xPkatL-8" style="edgeStyle=orthogonalEdgeStyle;rounded=0;orthogonalLoop=1;jettySize=auto;html=1;exitX=0;exitY=1;exitDx=0;exitDy=0;" edge="1" parent="1" source="QfL149suLyUnm_xPkatL-3" target="QfL149suLyUnm_xPkatL-5">
          <mxGeometry relative="1" as="geometry" />
        </mxCell>
        <mxCell id="QfL149suLyUnm_xPkatL-11" value="链路" style="edgeLabel;html=1;align=center;verticalAlign=middle;resizable=0;points=[];" vertex="1" connectable="0" parent="QfL149suLyUnm_xPkatL-8">
          <mxGeometry x="-0.0848" y="3" relative="1" as="geometry">
            <mxPoint as="offset" />
          </mxGeometry>
        </mxCell>
        <mxCell id="QfL149suLyUnm_xPkatL-9" style="edgeStyle=orthogonalEdgeStyle;rounded=0;orthogonalLoop=1;jettySize=auto;html=1;" edge="1" parent="1" source="QfL149suLyUnm_xPkatL-3" target="QfL149suLyUnm_xPkatL-6">
          <mxGeometry relative="1" as="geometry" />
        </mxCell>
        <mxCell id="QfL149suLyUnm_xPkatL-10" style="edgeStyle=orthogonalEdgeStyle;rounded=0;orthogonalLoop=1;jettySize=auto;html=1;" edge="1" parent="1" source="QfL149suLyUnm_xPkatL-3" target="QfL149suLyUnm_xPkatL-7">
          <mxGeometry relative="1" as="geometry" />
        </mxCell>
        <mxCell id="QfL149suLyUnm_xPkatL-3" value="" style="image;html=1;image=img/lib/clip_art/networking/power_distribution_unit_128x128.png" vertex="1" parent="1">
          <mxGeometry x="460" y="-290" width="80" height="80" as="geometry" />
        </mxCell>
        <mxCell id="QfL149suLyUnm_xPkatL-5" value="" style="image;html=1;image=img/lib/clip_art/computers/Monitor_128x128.png" vertex="1" parent="1">
          <mxGeometry x="260" y="-40" width="80" height="80" as="geometry" />
        </mxCell>
        <mxCell id="QfL149suLyUnm_xPkatL-6" value="" style="image;html=1;image=img/lib/clip_art/computers/Monitor_128x128.png" vertex="1" parent="1">
          <mxGeometry x="530" width="80" height="80" as="geometry" />
        </mxCell>
        <mxCell id="QfL149suLyUnm_xPkatL-7" value="" style="image;html=1;image=img/lib/clip_art/computers/Monitor_128x128.png" vertex="1" parent="1">
          <mxGeometry x="770" y="10" width="80" height="80" as="geometry" />
        </mxCell>
        <mxCell id="QfL149suLyUnm_xPkatL-12" value="节点&lt;br&gt;" style="text;html=1;resizable=0;autosize=1;align=center;verticalAlign=middle;points=[];fillColor=none;strokeColor=none;rounded=0;" vertex="1" parent="1">
          <mxGeometry x="460" y="-300" width="50" height="30" as="geometry" />
        </mxCell>
      </root>
    </mxGraphModel>
  </diagram>
</mxfile>
